<?xml version="1.0" encoding="UTF-8"?> <svg version="1.1" width="16" height="16" viewBox="0 0 16 16" xmlns="http://www.w3.org/2000/svg" shape-rendering="crispEdges"> <g transform="translate(0.5,0.5)"> <rect x="6" y="1" width="1" height="1" fill="#7A1E08" /> <rect x="7" y="1" width="1" height="1" fill="#7A1E08" /> <rect x="8" y="1" width="1" height="1" fill="#7A1E08" /> <rect x="5" y="2" width="1" height="1" fill="#FCC6AE" /> <rect x="6" y="2" width="1" height="1" fill="#FB5032" /> <rect x="7" y="2" width="1" height="1" fill="#FB5032" /> <rect x="8" y="2" width="1" height="1" fill="#F67447" /> <rect x="9" y="2" width="1" height="1" fill="#7A1E08" /> <rect x="4" y="3" width="1" height="1" fill="#7A1E08" /> <rect x="5" y="3" width="1" height="1" fill="#FB5032" /> <rect x="6" y="3" width="1" height="1" fill="#FCC6AE" /> <rect x="7" y="3" width="1" height="1" fill="#FB5032" /> <rect x="8" y="3" width="1" height="1" fill="#FB5032" /> <rect x="9" y="3" width="1" height="1" fill="#F67447" /> <rect x="10" y="3" width="1" height="1" fill="#7A1E08" /> <rect x="3" y="4" width="1" height="1" fill="#7A1E08" /> <rect x="4" y="4" width="1" height="1" fill="#FB5032" /> <rect x="5" y="4" width="1" height="1" fill="#E64124" /> <rect x="6" y="4" width="1" height="1" fill="#E64124" /> <rect x="7" y="4" width="1" height="1" fill="#FCC6AE" /> <rect x="8" y="4" width="1" height="1" fill="#F14E32" /> <rect x="9" y="4" width="1" height="1" fill="#FB5032" /> <rect x="10" y="4" width="1" height="1" fill="#F67447" /> <rect x="11" y="4" width="1" height="1" fill="#7A1E08" /> <rect x="2" y="5" width="1" height="1" fill="#7A1E08" /> <rect x="3" y="5" width="1" height="1" fill="#FB5032" /> <rect x="4" y="5" width="1" height="1" fill="#FB5032" /> <rect x="5" y="5" width="1" height="1" fill="#FB5032" /> <rect x="6" y="5" width="1" height="1" fill="#FABDA7" /> <rect x="7" y="5" width="1" height="1" fill="#FCC6AE" /> <rect x="8" y="5" width="1" height="1" fill="#FABDA7" /> <rect x="9" y="5" width="1" height="1" fill="#F14E32" /> <rect x="10" y="5" width="1" height="1" fill="#FB5032" /> <rect x="11" y="5" width="1" height="1" fill="#F67447" /> <rect x="12" y="5" width="1" height="1" fill="#7A1E08" /> <rect x="1" y="6" width="1" height="1" fill="#7A1E08" /> <rect x="2" y="6" width="1" height="1" fill="#FA8755" /> <rect x="3" y="6" width="1" height="1" fill="#E6462B" /> <rect x="4" y="6" width="1" height="1" fill="#EE4325" /> <rect x="5" y="6" width="1" height="1" fill="#EE4325" /> <rect x="6" y="6" width="1" height="1" fill="#FB5032" /> <rect x="7" y="6" width="1" height="1" fill="#FDCFB7" /> <rect x="8" y="6" width="1" height="1" fill="#E64327" /> <rect x="9" y="6" width="1" height="1" fill="#FABDA7" /> <rect x="10" y="6" width="1" height="1" fill="#F14E32" /> <rect x="11" y="6" width="1" height="1" fill="#FB5032" /> <rect x="12" y="6" width="1" height="1" fill="#F67447" /> <rect x="13" y="6" width="1" height="1" fill="#7A1E08" /> <rect x="1" y="7" width="1" height="1" fill="#7A1E08" /> <rect x="2" y="7" width="1" height="1" fill="#FA8755" /> <rect x="3" y="7" width="1" height="1" fill="#E6462B" /> <rect x="4" y="7" width="1" height="1" fill="#E6462B" /> <rect x="5" y="7" width="1" height="1" fill="#EE4325" /> <rect x="6" y="7" width="1" height="1" fill="#FB5032" /> <rect x="7" y="7" width="1" height="1" fill="#FDCFB7" /> <rect x="8" y="7" width="1" height="1" fill="#E64327" /> <rect x="9" y="7" width="1" height="1" fill="#F14E32" /> <rect x="10" y="7" width="1" height="1" fill="#FABDA7" /> <rect x="11" y="7" width="1" height="1" fill="#F8AB9D" /> <rect x="12" y="7" width="1" height="1" fill="#F67447" /> <rect x="13" y="7" width="1" height="1" fill="#7A1E08" /> <rect x="1" y="8" width="1" height="1" fill="#7A1E08" /> <rect x="2" y="8" width="1" height="1" fill="#FA8755" /> <rect x="3" y="8" width="1" height="1" fill="#FB5032" /> <rect x="4" y="8" width="1" height="1" fill="#FB5032" /> <rect x="5" y="8" width="1" height="1" fill="#E64327" /> <rect x="6" y="8" width="1" height="1" fill="#E64327" /> <rect x="7" y="8" width="1" height="1" fill="#FBCAB1" /> <rect x="8" y="8" width="1" height="1" fill="#F14E32" /> <rect x="9" y="8" width="1" height="1" fill="#F14E32" /> <rect x="10" y="8" width="1" height="1" fill="#FABDA7" /> <rect x="11" y="8" width="1" height="1" fill="#F3A598" /> <rect x="12" y="8" width="1" height="1" fill="#F67447" /> <rect x="13" y="8" width="1" height="1" fill="#7A1E08" /> <rect x="2" y="9" width="1" height="1" fill="#7A1E08" /> <rect x="3" y="9" width="1" height="1" fill="#FA8755" /> <rect x="4" y="9" width="1" height="1" fill="#E64327" /> <rect x="5" y="9" width="1" height="1" fill="#E64327" /> <rect x="6" y="9" width="1" height="1" fill="#E64327" /> <rect x="7" y="9" width="1" height="1" fill="#FCC6AE" /> <rect x="8" y="9" width="1" height="1" fill="#F14E32" /> <rect x="9" y="9" width="1" height="1" fill="#F14E32" /> <rect x="10" y="9" width="1" height="1" fill="#E64327" /> <rect x="11" y="9" width="1" height="1" fill="#F67447" /> <rect x="12" y="9" width="1" height="1" fill="#7A1E08" /> <rect x="3" y="10" width="1" height="1" fill="#7A1E08" /> <rect x="4" y="10" width="1" height="1" fill="#FA8755" /> <rect x="5" y="10" width="1" height="1" fill="#E64327" /> <rect x="6" y="10" width="1" height="1" fill="#FABDA7" /> <rect x="7" y="10" width="1" height="1" fill="#FABDA7" /> <rect x="8" y="10" width="1" height="1" fill="#FABDA7" /> <rect x="9" y="10" width="1" height="1" fill="#E64327" /> <rect x="10" y="10" width="1" height="1" fill="#F67447" /> <rect x="11" y="10" width="1" height="1" fill="#7A1E08" /> <rect x="4" y="11" width="1" height="1" fill="#7A1E08" /> <rect x="5" y="11" width="1" height="1" fill="#FA8755" /> <rect x="6" y="11" width="1" height="1" fill="#F67447" /> <rect x="7" y="11" width="1" height="1" fill="#FABDA7" /> <rect x="8" y="11" width="1" height="1" fill="#E64327" /> <rect x="9" y="11" width="1" height="1" fill="#F67447" /> <rect x="10" y="11" width="1" height="1" fill="#7A1E08" /> <rect x="5" y="12" width="1" height="1" fill="#7A1E08" /> <rect x="6" y="12" width="1" height="1" fill="#F67447" /> <rect x="7" y="12" width="1" height="1" fill="#F67447" /> <rect x="8" y="12" width="1" height="1" fill="#F67447" /> <rect x="9" y="12" width="1" height="1" fill="#7A1E08" /> <rect x="6" y="13" width="1" height="1" fill="#7A1E08" /> <rect x="7" y="13" width="1" height="1" fill="#7A1E08" /> <rect x="8" y="13" width="1" height="1" fill="#7A1E08" /> </g> </svg>