<?xml version="1.0" encoding="UTF-8" ?>
<svg version="1.1" width="16" height="16" xmlns="http://www.w3.org/2000/svg" shape-rendering="crispEdges">
<rect x="3" y="2" width="1" height="1" fill="#2D1C4F" />
<rect x="4" y="2" width="1" height="1" fill="#2D1C4F" />
<rect x="5" y="2" width="1" height="1" fill="#2D1C4F" />
<rect x="6" y="2" width="1" height="1" fill="#2D1C4F" />
<rect x="7" y="2" width="1" height="1" fill="#2D1C4F" />
<rect x="8" y="2" width="1" height="1" fill="#2D1C4F" />
<rect x="9" y="2" width="1" height="1" fill="#2D1C4F" />
<rect x="10" y="2" width="1" height="1" fill="#2D1C4F" />
<rect x="11" y="2" width="1" height="1" fill="#2D1C4F" />
<rect x="12" y="2" width="1" height="1" fill="#2D1C4F" />
<rect x="2" y="3" width="1" height="1" fill="#2D1C4F" />
<rect x="3" y="3" width="1" height="1" fill="#483471" />
<rect x="4" y="3" width="1" height="1" fill="#505F8C" />
<rect x="5" y="3" width="1" height="1" fill="#505F8C" />
<rect x="6" y="3" width="1" height="1" fill="#5874BD" />
<rect x="7" y="3" width="1" height="1" fill="#9BAFEA" />
<rect x="8" y="3" width="1" height="1" fill="#9BAFEA" />
<rect x="9" y="3" width="1" height="1" fill="#5874BD" />
<rect x="10" y="3" width="1" height="1" fill="#505F8C" />
<rect x="11" y="3" width="1" height="1" fill="#505F8C" />
<rect x="12" y="3" width="1" height="1" fill="#483471" />
<rect x="13" y="3" width="1" height="1" fill="#2D1C4F" />
<rect x="2" y="4" width="1" height="1" fill="#2D1C4F" />
<rect x="3" y="4" width="1" height="1" fill="#505F8C" />
<rect x="4" y="4" width="1" height="1" fill="#505F8C" />
<rect x="5" y="4" width="1" height="1" fill="#5874BD" />
<rect x="6" y="4" width="1" height="1" fill="#9BAFEA" />
<rect x="7" y="4" width="1" height="1" fill="#5672BF" />
<rect x="8" y="4" width="1" height="1" fill="#5672BF" />
<rect x="9" y="4" width="1" height="1" fill="#9BAFEA" />
<rect x="10" y="4" width="1" height="1" fill="#5874BD" />
<rect x="11" y="4" width="1" height="1" fill="#505F8C" />
<rect x="12" y="4" width="1" height="1" fill="#505F8C" />
<rect x="13" y="4" width="1" height="1" fill="#2D1C4F" />
<rect x="2" y="5" width="1" height="1" fill="#2D1C4F" />
<rect x="3" y="5" width="1" height="1" fill="#505F8C" />
<rect x="4" y="5" width="1" height="1" fill="#5874BD" />
<rect x="5" y="5" width="1" height="1" fill="#9BAFEA" />
<rect x="6" y="5" width="1" height="1" fill="#5672BF" />
<rect x="7" y="5" width="1" height="1" fill="#C6E2F6" />
<rect x="8" y="5" width="1" height="1" fill="#C6E2F6" />
<rect x="9" y="5" width="1" height="1" fill="#5672BF" />
<rect x="10" y="5" width="1" height="1" fill="#9BAFEA" />
<rect x="11" y="5" width="1" height="1" fill="#5874BD" />
<rect x="12" y="5" width="1" height="1" fill="#505F8C" />
<rect x="13" y="5" width="1" height="1" fill="#2D1C4F" />
<rect x="2" y="6" width="1" height="1" fill="#2D1C4F" />
<rect x="3" y="6" width="1" height="1" fill="#5874BD" />
<rect x="4" y="6" width="1" height="1" fill="#9BAFEA" />
<rect x="5" y="6" width="1" height="1" fill="#5672BF" />
<rect x="6" y="6" width="1" height="1" fill="#C6E2F6" />
<rect x="7" y="6" width="1" height="1" fill="#4F608A" />
<rect x="8" y="6" width="1" height="1" fill="#4F608A" />
<rect x="9" y="6" width="1" height="1" fill="#C6E2F6" />
<rect x="10" y="6" width="1" height="1" fill="#5672BF" />
<rect x="11" y="6" width="1" height="1" fill="#9BAFEA" />
<rect x="12" y="6" width="1" height="1" fill="#5874BD" />
<rect x="13" y="6" width="1" height="1" fill="#2D1C4F" />
<rect x="2" y="7" width="1" height="1" fill="#2D1C4F" />
<rect x="3" y="7" width="1" height="1" fill="#9BAFEA" />
<rect x="4" y="7" width="1" height="1" fill="#5672BF" />
<rect x="5" y="7" width="1" height="1" fill="#C6E2F6" />
<rect x="6" y="7" width="1" height="1" fill="#4F608A" />
<rect x="7" y="7" width="1" height="1" fill="#2D1C4F" />
<rect x="8" y="7" width="1" height="1" fill="#2D1C4F" />
<rect x="9" y="7" width="1" height="1" fill="#4F608A" />
<rect x="10" y="7" width="1" height="1" fill="#C6E2F6" />
<rect x="11" y="7" width="1" height="1" fill="#5672BF" />
<rect x="12" y="7" width="1" height="1" fill="#9BAFEA" />
<rect x="13" y="7" width="1" height="1" fill="#2D1C4F" />
<rect x="2" y="8" width="1" height="1" fill="#2D1C4F" />
<rect x="3" y="8" width="1" height="1" fill="#9BAFEA" />
<rect x="4" y="8" width="1" height="1" fill="#5672BF" />
<rect x="5" y="8" width="1" height="1" fill="#C6E2F6" />
<rect x="6" y="8" width="1" height="1" fill="#4F608A" />
<rect x="7" y="8" width="1" height="1" fill="#2D1C4F" />
<rect x="8" y="8" width="1" height="1" fill="#483471" />
<rect x="9" y="8" width="1" height="1" fill="#4F608A" />
<rect x="10" y="8" width="1" height="1" fill="#C6E2F6" />
<rect x="11" y="8" width="1" height="1" fill="#5672BF" />
<rect x="12" y="8" width="1" height="1" fill="#9BAFEA" />
<rect x="13" y="8" width="1" height="1" fill="#2D1C4F" />
<rect x="2" y="9" width="1" height="1" fill="#2D1C4F" />
<rect x="3" y="9" width="1" height="1" fill="#5874BD" />
<rect x="4" y="9" width="1" height="1" fill="#9BAFEA" />
<rect x="5" y="9" width="1" height="1" fill="#5672BF" />
<rect x="6" y="9" width="1" height="1" fill="#C6E2F6" />
<rect x="7" y="9" width="1" height="1" fill="#4F608A" />
<rect x="8" y="9" width="1" height="1" fill="#4F608A" />
<rect x="9" y="9" width="1" height="1" fill="#C6E2F6" />
<rect x="10" y="9" width="1" height="1" fill="#5672BF" />
<rect x="11" y="9" width="1" height="1" fill="#9BAFEA" />
<rect x="12" y="9" width="1" height="1" fill="#5874BD" />
<rect x="13" y="9" width="1" height="1" fill="#2D1C4F" />
<rect x="2" y="10" width="1" height="1" fill="#2D1C4F" />
<rect x="3" y="10" width="1" height="1" fill="#505F8C" />
<rect x="4" y="10" width="1" height="1" fill="#5874BD" />
<rect x="5" y="10" width="1" height="1" fill="#9BAFEA" />
<rect x="6" y="10" width="1" height="1" fill="#5672BF" />
<rect x="7" y="10" width="1" height="1" fill="#C6E2F6" />
<rect x="8" y="10" width="1" height="1" fill="#C6E2F6" />
<rect x="9" y="10" width="1" height="1" fill="#5672BF" />
<rect x="10" y="10" width="1" height="1" fill="#9BAFEA" />
<rect x="11" y="10" width="1" height="1" fill="#5874BD" />
<rect x="12" y="10" width="1" height="1" fill="#505F8C" />
<rect x="13" y="10" width="1" height="1" fill="#2D1C4F" />
<rect x="2" y="11" width="1" height="1" fill="#2D1C4F" />
<rect x="3" y="11" width="1" height="1" fill="#505F8C" />
<rect x="4" y="11" width="1" height="1" fill="#505F8C" />
<rect x="5" y="11" width="1" height="1" fill="#5874BD" />
<rect x="6" y="11" width="1" height="1" fill="#9BAFEA" />
<rect x="7" y="11" width="1" height="1" fill="#5672BF" />
<rect x="8" y="11" width="1" height="1" fill="#5672BF" />
<rect x="9" y="11" width="1" height="1" fill="#9BAFEA" />
<rect x="10" y="11" width="1" height="1" fill="#5874BD" />
<rect x="11" y="11" width="1" height="1" fill="#505F8C" />
<rect x="12" y="11" width="1" height="1" fill="#505F8C" />
<rect x="13" y="11" width="1" height="1" fill="#2D1C4F" />
<rect x="2" y="12" width="1" height="1" fill="#2D1C4F" />
<rect x="3" y="12" width="1" height="1" fill="#483471" />
<rect x="4" y="12" width="1" height="1" fill="#505F8C" />
<rect x="5" y="12" width="1" height="1" fill="#505F8C" />
<rect x="6" y="12" width="1" height="1" fill="#5874BD" />
<rect x="7" y="12" width="1" height="1" fill="#9BAFEA" />
<rect x="8" y="12" width="1" height="1" fill="#9BAFEA" />
<rect x="9" y="12" width="1" height="1" fill="#5874BD" />
<rect x="10" y="12" width="1" height="1" fill="#505F8C" />
<rect x="11" y="12" width="1" height="1" fill="#505F8C" />
<rect x="12" y="12" width="1" height="1" fill="#483471" />
<rect x="13" y="12" width="1" height="1" fill="#2D1C4F" />
<rect x="3" y="13" width="1" height="1" fill="#2D1C4F" />
<rect x="4" y="13" width="1" height="1" fill="#2D1C4F" />
<rect x="5" y="13" width="1" height="1" fill="#2D1C4F" />
<rect x="6" y="13" width="1" height="1" fill="#2D1C4F" />
<rect x="7" y="13" width="1" height="1" fill="#2D1C4F" />
<rect x="8" y="13" width="1" height="1" fill="#2D1C4F" />
<rect x="9" y="13" width="1" height="1" fill="#2D1C4F" />
<rect x="10" y="13" width="1" height="1" fill="#2D1C4F" />
<rect x="11" y="13" width="1" height="1" fill="#2D1C4F" />
<rect x="12" y="13" width="1" height="1" fill="#2D1C4F" />
</svg>